<svg width="40" height="40" viewBox="0 0 40 40" fill="none" xmlns="http://www.w3.org/2000/svg">
<rect width="40" height="40" rx="20" fill="white"/>
<path d="M27 21V26C27 26.55 26.55 27 26 27H14C13.45 27 13 26.55 13 26V21C13 20.45 12.55 20 12 20C11.45 20 11 20.45 11 21V27C11 28.1 11.9 29 13 29H27C28.1 29 29 28.1 29 27V21C29 20.45 28.55 20 28 20C27.45 20 27 20.45 27 21ZM21 20.67L22.88 18.79C23.27 18.4 23.9 18.4 24.29 18.79C24.68 19.18 24.68 19.81 24.29 20.2L20.7 23.79C20.31 24.18 19.68 24.18 19.29 23.79L15.7 20.2C15.31 19.81 15.31 19.18 15.7 18.79C16.09 18.4 16.72 18.4 17.11 18.79L19 20.67V12C19 11.45 19.45 11 20 11C20.55 11 21 11.45 21 12V20.67Z" fill="#515EDB"/>
</svg>
