<svg width="48" height="48" viewBox="0 0 48 48" fill="none" xmlns="http://www.w3.org/2000/svg">
<circle cx="24" cy="24" r="24" fill="white"/>
<path d="M30.4706 15.5V14.25C30.4706 13.5625 29.9412 13 29.2941 13H15.1765C14.5294 13 14 13.5625 14 14.25V19.25C14 19.9375 14.5294 20.5 15.1765 20.5H29.2941C29.9412 20.5 30.4706 19.9375 30.4706 19.25V18H31.6471V23H19.8824V36.75C19.8824 37.4375 20.4118 38 21.0588 38H23.4118C24.0588 38 24.5882 37.4375 24.5882 36.75V25.5H34V15.5H30.4706ZM28.1176 18H16.3529V15.5H28.1176V18Z" fill="#515EDB"/>
</svg>
