<svg width="32" height="32" viewBox="0 0 32 32" fill="none" xmlns="http://www.w3.org/2000/svg">
<path d="M23.4818 16.6016C21.9118 12.5216 16.3218 12.3016 17.6718 6.37161C17.7718 5.93161 17.3018 5.59161 16.9218 5.82161C13.2918 7.96161 10.6818 12.2516 12.8718 17.8716C13.0518 18.3316 12.5118 18.7616 12.1218 18.4616C10.3118 17.0916 10.1218 15.1216 10.2818 13.7116C10.3418 13.1916 9.66183 12.9416 9.37183 13.3716C8.69183 14.4116 8.00183 16.0916 8.00183 18.6216C8.38183 24.2216 13.1118 25.9416 14.8118 26.1616C17.2418 26.4716 19.8718 26.0216 21.7618 24.2916C23.8418 22.3616 24.6018 19.2816 23.4818 16.6016ZM14.2018 21.6316C15.6418 21.2816 16.3818 20.2416 16.5818 19.3216C16.9118 17.8916 15.6218 16.4916 16.4918 14.2316C16.8218 16.1016 19.7618 17.2716 19.7618 19.3116C19.8418 21.8416 17.1018 24.0116 14.2018 21.6316Z" fill="#515EDB"/>
</svg>
